<?xml version="1.0"?>
<!-- Generated by SVGo -->
<svg width="2480" height="3508"
     xmlns="http://www.w3.org/2000/svg"
     xmlns:xlink="http://www.w3.org/1999/xlink">
<g transform="translate(124,175)">
<rect x="0" y="0" width="558" height="789" style="stroke:black;fill:#eeeeee;stroke-width:11px"/>
<g style="font-size:71px;fill:black;text-anchor:middle;stroke:none;font-weight:bold;font-family:Arial">
<text x="279" y="98" >Speed</text>
</g>
<text x="279" y="246" style="stroke:none;fill:black;text-anchor:middle;font-family:Arial;font-size:46px">You can get anywhere</text>
<text x="279" y="292" style="stroke:none;fill:black;text-anchor:middle;font-family:Arial;font-size:46px">quicker than anyone</text>
<text x="279" y="338" style="stroke:none;fill:black;text-anchor:middle;font-family:Arial;font-size:46px">else. You can react</text>
<text x="279" y="384" style="stroke:none;fill:black;text-anchor:middle;font-family:Arial;font-size:46px">fast, to any physical</text>
<text x="279" y="430" style="stroke:none;fill:black;text-anchor:middle;font-family:Arial;font-size:46px">action.</text>
<rect x="0" y="631" width="558" height="118" style="fill:#88ff88;stroke:none;"/>
<text x="279" y="710" style="text-anchor:middle;fill:black;font-family:Arial;font-weight:bold;font-size:55px">Skill</text>
<ellipse cx="474" cy="690" rx="63" ry="63" style="fill:yellow;stroke:black;stroke-width:9px"/>
<text x="474" y="739" style="text-anchor:middle;fill:black;stroke:white;stroke-width:11px;font-family:Arial;font-weight:bold;font-size:139px">7</text>
<text x="474" y="739" style="text-anchor:middle;fill:black;stroke:none;font-family:Arial;font-weight:bold;font-size:139px">7</text>
</g>
<g transform="translate(682,175)">
<rect x="0" y="0" width="558" height="789" style="stroke:black;fill:#eeeeee;stroke-width:11px"/>
<g style="font-size:71px;fill:black;text-anchor:middle;stroke:none;font-weight:bold;font-family:Arial">
<text x="279" y="98" >Arrival</text>
</g>
<text x="279" y="246" style="stroke:none;fill:black;text-anchor:middle;font-family:Arial;font-size:46px">Who arrives? Is it the</text>
<text x="279" y="292" style="stroke:none;fill:black;text-anchor:middle;font-family:Arial;font-size:46px">group, or someone else?</text>
<text x="279" y="338" style="stroke:none;fill:black;text-anchor:middle;font-family:Arial;font-size:46px">Was this expected?</text>
<rect x="0" y="631" width="558" height="118" style="fill:#ffff88;stroke:none;"/>
<text x="279" y="710" style="text-anchor:middle;fill:black;font-family:Arial;font-weight:bold;font-size:55px">Event</text>
</g>
<g transform="translate(1240,175)">
</g>
<g transform="translate(1798,175)">
</g>
<g transform="translate(124,964)">
</g>
<g transform="translate(682,964)">
</g>
<g transform="translate(1240,964)">
</g>
<g transform="translate(1798,964)">
</g>
<g transform="translate(124,1753)">
</g>
<g transform="translate(682,1753)">
</g>
<g transform="translate(1240,1753)">
</g>
<g transform="translate(1798,1753)">
</g>
<g transform="translate(124,2542)">
</g>
<g transform="translate(682,2542)">
</g>
<g transform="translate(1240,2542)">
</g>
<g transform="translate(1798,2542)">
</g>
</svg>
