<?xml version="1.0"?>
<!-- Generated by SVGo -->
<svg width="2480" height="3508"
     xmlns="http://www.w3.org/2000/svg"
     xmlns:xlink="http://www.w3.org/1999/xlink">
<g transform="translate(124,175)">
<rect x="0" y="0" width="558" height="789" style="stroke:none;fill:#eeeeee;"/>
<rect x="111" y="0" width="223" height="789" style="stroke:none;fill:#ffff88;"/>
<g transform="rotate(-90,279,394)">
<text x="279" y="394" style="text-anchor:middle;fill:black;font-family:Arial;font-weight:bold;font-size:112px">Event</text>
<text x="279" y="591" style="text-anchor:middle;fill:#aaaaaa;font-family:Arial;font-weight:bold;font-size:56px">www.storyfeet.com</text>
</g>
</g>
<g transform="translate(682,175)">
<rect x="0" y="0" width="558" height="789" style="stroke:none;fill:#eeeeee;"/>
<rect x="111" y="0" width="223" height="789" style="stroke:none;fill:#ffff88;"/>
<g transform="rotate(-90,279,394)">
<text x="279" y="394" style="text-anchor:middle;fill:black;font-family:Arial;font-weight:bold;font-size:112px">Event</text>
<text x="279" y="591" style="text-anchor:middle;fill:#aaaaaa;font-family:Arial;font-weight:bold;font-size:56px">www.storyfeet.com</text>
</g>
</g>
<g transform="translate(1240,175)">
<rect x="0" y="0" width="558" height="789" style="stroke:none;fill:#eeeeee;"/>
<rect x="111" y="0" width="223" height="789" style="stroke:none;fill:#ff88ff;"/>
<g transform="rotate(-90,279,394)">
<text x="279" y="394" style="text-anchor:middle;fill:black;font-family:Arial;font-weight:bold;font-size:112px">Goal</text>
<text x="279" y="591" style="text-anchor:middle;fill:#aaaaaa;font-family:Arial;font-weight:bold;font-size:56px">www.storyfeet.com</text>
</g>
</g>
<g transform="translate(1798,175)">
<rect x="0" y="0" width="558" height="789" style="stroke:none;fill:#eeeeee;"/>
<rect x="111" y="0" width="223" height="789" style="stroke:none;fill:#ff88ff;"/>
<g transform="rotate(-90,279,394)">
<text x="279" y="394" style="text-anchor:middle;fill:black;font-family:Arial;font-weight:bold;font-size:112px">Goal</text>
<text x="279" y="591" style="text-anchor:middle;fill:#aaaaaa;font-family:Arial;font-weight:bold;font-size:56px">www.storyfeet.com</text>
</g>
</g>
<g transform="translate(124,964)">
<rect x="0" y="0" width="558" height="789" style="stroke:none;fill:#eeeeee;"/>
<rect x="111" y="0" width="223" height="789" style="stroke:none;fill:#ffff88;"/>
<g transform="rotate(-90,279,394)">
<text x="279" y="394" style="text-anchor:middle;fill:black;font-family:Arial;font-weight:bold;font-size:112px">Event</text>
<text x="279" y="591" style="text-anchor:middle;fill:#aaaaaa;font-family:Arial;font-weight:bold;font-size:56px">www.storyfeet.com</text>
</g>
</g>
<g transform="translate(682,964)">
<rect x="0" y="0" width="558" height="789" style="stroke:none;fill:#eeeeee;"/>
<rect x="111" y="0" width="223" height="789" style="stroke:none;fill:#ffff88;"/>
<g transform="rotate(-90,279,394)">
<text x="279" y="394" style="text-anchor:middle;fill:black;font-family:Arial;font-weight:bold;font-size:112px">Event</text>
<text x="279" y="591" style="text-anchor:middle;fill:#aaaaaa;font-family:Arial;font-weight:bold;font-size:56px">www.storyfeet.com</text>
</g>
</g>
<g transform="translate(1240,964)">
<rect x="0" y="0" width="558" height="789" style="stroke:none;fill:#eeeeee;"/>
<rect x="111" y="0" width="223" height="789" style="stroke:none;fill:#ffff88;"/>
<g transform="rotate(-90,279,394)">
<text x="279" y="394" style="text-anchor:middle;fill:black;font-family:Arial;font-weight:bold;font-size:112px">Event</text>
<text x="279" y="591" style="text-anchor:middle;fill:#aaaaaa;font-family:Arial;font-weight:bold;font-size:56px">www.storyfeet.com</text>
</g>
</g>
<g transform="translate(1798,964)">
<rect x="0" y="0" width="558" height="789" style="stroke:none;fill:#eeeeee;"/>
<rect x="111" y="0" width="223" height="789" style="stroke:none;fill:#ffff88;"/>
<g transform="rotate(-90,279,394)">
<text x="279" y="394" style="text-anchor:middle;fill:black;font-family:Arial;font-weight:bold;font-size:112px">Event</text>
<text x="279" y="591" style="text-anchor:middle;fill:#aaaaaa;font-family:Arial;font-weight:bold;font-size:56px">www.storyfeet.com</text>
</g>
</g>
<g transform="translate(124,1753)">
<rect x="0" y="0" width="558" height="789" style="stroke:none;fill:#eeeeee;"/>
<rect x="111" y="0" width="223" height="789" style="stroke:none;fill:#ffff88;"/>
<g transform="rotate(-90,279,394)">
<text x="279" y="394" style="text-anchor:middle;fill:black;font-family:Arial;font-weight:bold;font-size:112px">Event</text>
<text x="279" y="591" style="text-anchor:middle;fill:#aaaaaa;font-family:Arial;font-weight:bold;font-size:56px">www.storyfeet.com</text>
</g>
</g>
<g transform="translate(682,1753)">
<rect x="0" y="0" width="558" height="789" style="stroke:none;fill:#eeeeee;"/>
<rect x="111" y="0" width="223" height="789" style="stroke:none;fill:#ffff88;"/>
<g transform="rotate(-90,279,394)">
<text x="279" y="394" style="text-anchor:middle;fill:black;font-family:Arial;font-weight:bold;font-size:112px">Event</text>
<text x="279" y="591" style="text-anchor:middle;fill:#aaaaaa;font-family:Arial;font-weight:bold;font-size:56px">www.storyfeet.com</text>
</g>
</g>
<g transform="translate(1240,1753)">
<rect x="0" y="0" width="558" height="789" style="stroke:none;fill:#eeeeee;"/>
<rect x="111" y="0" width="223" height="789" style="stroke:none;fill:#ffff88;"/>
<g transform="rotate(-90,279,394)">
<text x="279" y="394" style="text-anchor:middle;fill:black;font-family:Arial;font-weight:bold;font-size:112px">Event</text>
<text x="279" y="591" style="text-anchor:middle;fill:#aaaaaa;font-family:Arial;font-weight:bold;font-size:56px">www.storyfeet.com</text>
</g>
</g>
<g transform="translate(1798,1753)">
<rect x="0" y="0" width="558" height="789" style="stroke:none;fill:#eeeeee;"/>
<rect x="111" y="0" width="223" height="789" style="stroke:none;fill:#ffff88;"/>
<g transform="rotate(-90,279,394)">
<text x="279" y="394" style="text-anchor:middle;fill:black;font-family:Arial;font-weight:bold;font-size:112px">Event</text>
<text x="279" y="591" style="text-anchor:middle;fill:#aaaaaa;font-family:Arial;font-weight:bold;font-size:56px">www.storyfeet.com</text>
</g>
</g>
<g transform="translate(124,2542)">
<rect x="0" y="0" width="558" height="789" style="stroke:none;fill:#eeeeee;"/>
<rect x="111" y="0" width="223" height="789" style="stroke:none;fill:#ffff88;"/>
<g transform="rotate(-90,279,394)">
<text x="279" y="394" style="text-anchor:middle;fill:black;font-family:Arial;font-weight:bold;font-size:112px">Event</text>
<text x="279" y="591" style="text-anchor:middle;fill:#aaaaaa;font-family:Arial;font-weight:bold;font-size:56px">www.storyfeet.com</text>
</g>
</g>
<g transform="translate(682,2542)">
<rect x="0" y="0" width="558" height="789" style="stroke:none;fill:#eeeeee;"/>
<rect x="111" y="0" width="223" height="789" style="stroke:none;fill:#ffff88;"/>
<g transform="rotate(-90,279,394)">
<text x="279" y="394" style="text-anchor:middle;fill:black;font-family:Arial;font-weight:bold;font-size:112px">Event</text>
<text x="279" y="591" style="text-anchor:middle;fill:#aaaaaa;font-family:Arial;font-weight:bold;font-size:56px">www.storyfeet.com</text>
</g>
</g>
<g transform="translate(1240,2542)">
<rect x="0" y="0" width="558" height="789" style="stroke:none;fill:#eeeeee;"/>
<rect x="111" y="0" width="223" height="789" style="stroke:none;fill:#ffff88;"/>
<g transform="rotate(-90,279,394)">
<text x="279" y="394" style="text-anchor:middle;fill:black;font-family:Arial;font-weight:bold;font-size:112px">Event</text>
<text x="279" y="591" style="text-anchor:middle;fill:#aaaaaa;font-family:Arial;font-weight:bold;font-size:56px">www.storyfeet.com</text>
</g>
</g>
<g transform="translate(1798,2542)">
<rect x="0" y="0" width="558" height="789" style="stroke:none;fill:#eeeeee;"/>
<rect x="111" y="0" width="223" height="789" style="stroke:none;fill:#ffff88;"/>
<g transform="rotate(-90,279,394)">
<text x="279" y="394" style="text-anchor:middle;fill:black;font-family:Arial;font-weight:bold;font-size:112px">Event</text>
<text x="279" y="591" style="text-anchor:middle;fill:#aaaaaa;font-family:Arial;font-weight:bold;font-size:56px">www.storyfeet.com</text>
</g>
</g>
</svg>
