<?xml version="1.0"?>
<!-- Generated by SVGo -->
<svg width="2480" height="3508"
     xmlns="http://www.w3.org/2000/svg"
     xmlns:xlink="http://www.w3.org/1999/xlink">
<g transform="translate(124,175)">
<rect x="0" y="0" width="558" height="789" style="stroke:black;fill:#eeeeee;stroke-width:11px"/>
<g style="font-size:71px;fill:black;text-anchor:middle;stroke:none;font-weight:bold;font-family:Arial">
<text x="279" y="98" >Fayre</text>
</g>
<text x="279" y="246" style="stroke:none;fill:black;text-anchor:middle;font-family:Arial;font-size:46px">What&#39;s for sale? Who</text>
<text x="279" y="292" style="stroke:none;fill:black;text-anchor:middle;font-family:Arial;font-size:46px">does this bring</text>
<text x="279" y="338" style="stroke:none;fill:black;text-anchor:middle;font-family:Arial;font-size:46px">together? Could</text>
<text x="279" y="384" style="stroke:none;fill:black;text-anchor:middle;font-family:Arial;font-size:46px">anything go wrong here?</text>
<rect x="0" y="631" width="558" height="118" style="fill:#ffff88;stroke:none;"/>
<text x="279" y="710" style="text-anchor:middle;fill:black;font-family:Arial;font-weight:bold;font-size:55px">Event</text>
</g>
<g transform="translate(682,175)">
<rect x="0" y="0" width="558" height="789" style="stroke:black;fill:#eeeeee;stroke-width:11px"/>
<g style="font-size:71px;fill:black;text-anchor:middle;stroke:none;font-weight:bold;font-family:Arial">
<text x="279" y="98" >Grand</text>
<text x="279" y="169" >Opening</text>
</g>
<text x="279" y="246" style="stroke:none;fill:black;text-anchor:middle;font-family:Arial;font-size:46px">What is being opened?</text>
<text x="279" y="292" style="stroke:none;fill:black;text-anchor:middle;font-family:Arial;font-size:46px">What famous people are</text>
<text x="279" y="338" style="stroke:none;fill:black;text-anchor:middle;font-family:Arial;font-size:46px">coming? Does anyone</text>
<text x="279" y="384" style="stroke:none;fill:black;text-anchor:middle;font-family:Arial;font-size:46px">want to meet them? What</text>
<text x="279" y="430" style="stroke:none;fill:black;text-anchor:middle;font-family:Arial;font-size:46px">undesirables would come</text>
<text x="279" y="476" style="stroke:none;fill:black;text-anchor:middle;font-family:Arial;font-size:46px">to an event like this?</text>
<rect x="0" y="631" width="558" height="118" style="fill:#ffff88;stroke:none;"/>
<text x="279" y="710" style="text-anchor:middle;fill:black;font-family:Arial;font-weight:bold;font-size:55px">Event</text>
</g>
<g transform="translate(1240,175)">
<rect x="0" y="0" width="558" height="789" style="stroke:black;fill:#eeeeee;stroke-width:11px"/>
<g style="font-size:71px;fill:black;text-anchor:middle;stroke:none;font-weight:bold;font-family:Arial">
<text x="279" y="98" >Crime Scene</text>
</g>
<text x="279" y="246" style="stroke:none;fill:black;text-anchor:middle;font-family:Arial;font-size:46px">Is someone dead? Has</text>
<text x="279" y="292" style="stroke:none;fill:black;text-anchor:middle;font-family:Arial;font-size:46px">something been robbed?</text>
<text x="279" y="338" style="stroke:none;fill:black;text-anchor:middle;font-family:Arial;font-size:46px">Can you offer</text>
<text x="279" y="384" style="stroke:none;fill:black;text-anchor:middle;font-family:Arial;font-size:46px">assistence? To who?</text>
<rect x="0" y="631" width="558" height="118" style="fill:#ffff88;stroke:none;"/>
<text x="279" y="710" style="text-anchor:middle;fill:black;font-family:Arial;font-weight:bold;font-size:55px">Event</text>
</g>
<g transform="translate(1798,175)">
<rect x="0" y="0" width="558" height="789" style="stroke:black;fill:#eeeeee;stroke-width:11px"/>
<g style="font-size:71px;fill:black;text-anchor:middle;stroke:none;font-weight:bold;font-family:Arial">
<text x="279" y="98" >King</text>
<text x="279" y="169" >Restopat</text>
</g>
<text x="279" y="246" style="stroke:none;fill:black;text-anchor:middle;font-family:Arial;font-size:46px"></text>
<rect x="0" y="631" width="558" height="118" style="fill:#8888ff;stroke:none;"/>
<text x="279" y="710" style="text-anchor:middle;fill:black;font-family:Arial;font-weight:bold;font-size:55px">Role</text>
<rect x="0" y="355" width="446" height="98" style="fill:#88ff88;stroke:none;"/>
<text x="41" y="433" style="text-anchor:start;fill:black;font-family:Arial;font-weight:bold;font-size:37px">Strategist</text>
<rect x="111" y="493" width="446" height="98" style="fill:#ff8888;stroke:none;"/>
<text x="516" y="572" style="text-anchor:end;fill:black;font-family:Arial;font-weight:bold;font-size:37px">Manipulative</text>
</g>
<g transform="translate(124,964)">
<rect x="0" y="0" width="558" height="789" style="stroke:black;fill:#eeeeee;stroke-width:11px"/>
<g style="font-size:71px;fill:black;text-anchor:middle;stroke:none;font-weight:bold;font-family:Arial">
<text x="279" y="98" >Prince</text>
<text x="279" y="169" >Robert</text>
</g>
<text x="279" y="246" style="stroke:none;fill:black;text-anchor:middle;font-family:Arial;font-size:46px"></text>
<rect x="0" y="631" width="558" height="118" style="fill:#8888ff;stroke:none;"/>
<text x="279" y="710" style="text-anchor:middle;fill:black;font-family:Arial;font-weight:bold;font-size:55px">Role</text>
<rect x="0" y="355" width="446" height="98" style="fill:#88ff88;stroke:none;"/>
<text x="41" y="433" style="text-anchor:start;fill:black;font-family:Arial;font-weight:bold;font-size:37px">Eloquent</text>
<rect x="111" y="493" width="446" height="98" style="fill:#ff8888;stroke:none;"/>
<text x="516" y="572" style="text-anchor:end;fill:black;font-family:Arial;font-weight:bold;font-size:37px">Pacifist</text>
</g>
<g transform="translate(682,964)">
<rect x="0" y="0" width="558" height="789" style="stroke:black;fill:#eeeeee;stroke-width:11px"/>
<g style="font-size:71px;fill:black;text-anchor:middle;stroke:none;font-weight:bold;font-family:Arial">
<text x="279" y="98" >Princess</text>
<text x="279" y="169" >Charmina</text>
</g>
<text x="279" y="246" style="stroke:none;fill:black;text-anchor:middle;font-family:Arial;font-size:46px">Immune to Persuasion</text>
<rect x="0" y="631" width="558" height="118" style="fill:#8888ff;stroke:none;"/>
<text x="279" y="710" style="text-anchor:middle;fill:black;font-family:Arial;font-weight:bold;font-size:55px">Role</text>
<rect x="0" y="355" width="446" height="98" style="fill:#88ff88;stroke:none;"/>
<text x="41" y="433" style="text-anchor:start;fill:black;font-family:Arial;font-weight:bold;font-size:37px">Stealth</text>
<rect x="111" y="493" width="446" height="98" style="fill:#ff8888;stroke:none;"/>
<text x="516" y="572" style="text-anchor:end;fill:black;font-family:Arial;font-weight:bold;font-size:37px">Rebelious</text>
</g>
<g transform="translate(1240,964)">
<rect x="0" y="0" width="558" height="789" style="stroke:black;fill:#eeeeee;stroke-width:11px"/>
<g style="font-size:71px;fill:black;text-anchor:middle;stroke:none;font-weight:bold;font-family:Arial">
<text x="279" y="98" >Ivy Malady</text>
</g>
<text x="279" y="246" style="stroke:none;fill:black;text-anchor:middle;font-family:Arial;font-size:46px">Handmaid to ??</text>
<rect x="0" y="631" width="558" height="118" style="fill:#8888ff;stroke:none;"/>
<text x="279" y="710" style="text-anchor:middle;fill:black;font-family:Arial;font-weight:bold;font-size:55px">Role</text>
<rect x="0" y="355" width="446" height="98" style="fill:#88ff88;stroke:none;"/>
<text x="41" y="433" style="text-anchor:start;fill:black;font-family:Arial;font-weight:bold;font-size:37px">Tailor</text>
<rect x="111" y="493" width="446" height="98" style="fill:#ff8888;stroke:none;"/>
<text x="516" y="572" style="text-anchor:end;fill:black;font-family:Arial;font-weight:bold;font-size:37px">Honest</text>
</g>
<g transform="translate(1798,964)">
<rect x="0" y="0" width="558" height="789" style="stroke:black;fill:#eeeeee;stroke-width:11px"/>
<g style="font-size:71px;fill:black;text-anchor:middle;stroke:none;font-weight:bold;font-family:Arial">
<text x="279" y="98" >Commander</text>
<text x="279" y="169" >Slimes</text>
</g>
<text x="279" y="246" style="stroke:none;fill:black;text-anchor:middle;font-family:Arial;font-size:46px">Army Commander</text>
<rect x="0" y="631" width="558" height="118" style="fill:#8888ff;stroke:none;"/>
<text x="279" y="710" style="text-anchor:middle;fill:black;font-family:Arial;font-weight:bold;font-size:55px">Role</text>
<rect x="0" y="355" width="446" height="98" style="fill:#88ff88;stroke:none;"/>
<text x="41" y="433" style="text-anchor:start;fill:black;font-family:Arial;font-weight:bold;font-size:37px">Swordsman</text>
<rect x="111" y="493" width="446" height="98" style="fill:#ff8888;stroke:none;"/>
<text x="516" y="572" style="text-anchor:end;fill:black;font-family:Arial;font-weight:bold;font-size:37px">Violent</text>
</g>
<g transform="translate(124,1753)">
<rect x="0" y="0" width="558" height="789" style="stroke:black;fill:#eeeeee;stroke-width:11px"/>
<g style="font-size:71px;fill:black;text-anchor:middle;stroke:none;font-weight:bold;font-family:Arial">
<text x="279" y="98" >Ray</text>
<text x="279" y="169" >Storping</text>
</g>
<text x="279" y="246" style="stroke:none;fill:black;text-anchor:middle;font-family:Arial;font-size:46px">Body Guard</text>
<rect x="0" y="631" width="558" height="118" style="fill:#8888ff;stroke:none;"/>
<text x="279" y="710" style="text-anchor:middle;fill:black;font-family:Arial;font-weight:bold;font-size:55px">Role</text>
<rect x="0" y="355" width="446" height="98" style="fill:#88ff88;stroke:none;"/>
<text x="41" y="433" style="text-anchor:start;fill:black;font-family:Arial;font-weight:bold;font-size:37px">Vigilance</text>
<rect x="111" y="493" width="446" height="98" style="fill:#ff8888;stroke:none;"/>
<text x="516" y="572" style="text-anchor:end;fill:black;font-family:Arial;font-weight:bold;font-size:37px">Pessemistic</text>
</g>
<g transform="translate(682,1753)">
<rect x="0" y="0" width="558" height="789" style="stroke:black;fill:#eeeeee;stroke-width:11px"/>
<g style="font-size:71px;fill:black;text-anchor:middle;stroke:none;font-weight:bold;font-family:Arial">
<text x="279" y="98" >Snide Rool</text>
</g>
<text x="279" y="246" style="stroke:none;fill:black;text-anchor:middle;font-family:Arial;font-size:46px">Mechanic</text>
<rect x="0" y="631" width="558" height="118" style="fill:#8888ff;stroke:none;"/>
<text x="279" y="710" style="text-anchor:middle;fill:black;font-family:Arial;font-weight:bold;font-size:55px">Role</text>
<rect x="0" y="355" width="446" height="98" style="fill:#88ff88;stroke:none;"/>
<text x="41" y="433" style="text-anchor:start;fill:black;font-family:Arial;font-weight:bold;font-size:37px">Pilot Anything</text>
<rect x="111" y="493" width="446" height="98" style="fill:#ff8888;stroke:none;"/>
<text x="516" y="572" style="text-anchor:end;fill:black;font-family:Arial;font-weight:bold;font-size:37px">Reckless</text>
</g>
<g transform="translate(1240,1753)">
<rect x="0" y="0" width="558" height="789" style="stroke:black;fill:#eeeeee;stroke-width:11px"/>
<g style="font-size:71px;fill:black;text-anchor:middle;stroke:none;font-weight:bold;font-family:Arial">
<text x="279" y="98" >Granny</text>
<text x="279" y="169" >Wildersnax</text>
</g>
<text x="279" y="246" style="stroke:none;fill:black;text-anchor:middle;font-family:Arial;font-size:46px">Grandmother of ??</text>
<rect x="0" y="631" width="558" height="118" style="fill:#8888ff;stroke:none;"/>
<text x="279" y="710" style="text-anchor:middle;fill:black;font-family:Arial;font-weight:bold;font-size:55px">Role</text>
<rect x="0" y="355" width="446" height="98" style="fill:#88ff88;stroke:none;"/>
<text x="41" y="433" style="text-anchor:start;fill:black;font-family:Arial;font-weight:bold;font-size:37px">Came Prepared</text>
<rect x="111" y="493" width="446" height="98" style="fill:#ff8888;stroke:none;"/>
<text x="516" y="572" style="text-anchor:end;fill:black;font-family:Arial;font-weight:bold;font-size:37px">Impulsive</text>
</g>
<g transform="translate(1798,1753)">
<rect x="0" y="0" width="558" height="789" style="stroke:black;fill:#eeeeee;stroke-width:11px"/>
<g style="font-size:71px;fill:black;text-anchor:middle;stroke:none;font-weight:bold;font-family:Arial">
<text x="279" y="98" >Ramble</text>
<text x="279" y="169" >Grenkin</text>
</g>
<text x="279" y="246" style="stroke:none;fill:black;text-anchor:middle;font-family:Arial;font-size:46px">Traveling Worker</text>
<rect x="0" y="631" width="558" height="118" style="fill:#8888ff;stroke:none;"/>
<text x="279" y="710" style="text-anchor:middle;fill:black;font-family:Arial;font-weight:bold;font-size:55px">Role</text>
<rect x="0" y="355" width="446" height="98" style="fill:#88ff88;stroke:none;"/>
<text x="41" y="433" style="text-anchor:start;fill:black;font-family:Arial;font-weight:bold;font-size:37px">MacGyver</text>
<rect x="111" y="493" width="446" height="98" style="fill:#ff8888;stroke:none;"/>
<text x="516" y="572" style="text-anchor:end;fill:black;font-family:Arial;font-weight:bold;font-size:37px">Brave</text>
</g>
<g transform="translate(124,2542)">
<rect x="0" y="0" width="558" height="789" style="stroke:black;fill:#eeeeee;stroke-width:11px"/>
<g style="font-size:71px;fill:black;text-anchor:middle;stroke:none;font-weight:bold;font-family:Arial">
<text x="279" y="98" >Styles</text>
<text x="279" y="169" >Malone</text>
</g>
<text x="279" y="246" style="stroke:none;fill:black;text-anchor:middle;font-family:Arial;font-size:46px">Detective</text>
<rect x="0" y="631" width="558" height="118" style="fill:#8888ff;stroke:none;"/>
<text x="279" y="710" style="text-anchor:middle;fill:black;font-family:Arial;font-weight:bold;font-size:55px">Role</text>
<rect x="0" y="355" width="446" height="98" style="fill:#88ff88;stroke:none;"/>
<text x="41" y="433" style="text-anchor:start;fill:black;font-family:Arial;font-weight:bold;font-size:37px">Deception Detector</text>
<rect x="111" y="493" width="446" height="98" style="fill:#ff8888;stroke:none;"/>
<text x="516" y="572" style="text-anchor:end;fill:black;font-family:Arial;font-weight:bold;font-size:37px">Smelly</text>
</g>
<g transform="translate(682,2542)">
<rect x="0" y="0" width="558" height="789" style="stroke:black;fill:#eeeeee;stroke-width:11px"/>
<g style="font-size:71px;fill:black;text-anchor:middle;stroke:none;font-weight:bold;font-family:Arial">
<text x="279" y="98" >Secret</text>
<text x="279" y="169" >Meeting</text>
</g>
<text x="279" y="246" style="stroke:none;fill:black;text-anchor:middle;font-family:Arial;font-size:46px">Who has called the</text>
<text x="279" y="292" style="stroke:none;fill:black;text-anchor:middle;font-family:Arial;font-size:46px">meeting? What are you</text>
<text x="279" y="338" style="stroke:none;fill:black;text-anchor:middle;font-family:Arial;font-size:46px">discussing? Where are</text>
<text x="279" y="384" style="stroke:none;fill:black;text-anchor:middle;font-family:Arial;font-size:46px">you meeting?</text>
<rect x="0" y="631" width="558" height="118" style="fill:#88ffff;stroke:none;"/>
<text x="279" y="710" style="text-anchor:middle;fill:black;font-family:Arial;font-weight:bold;font-size:55px">Scenario</text>
</g>
<g transform="translate(1240,2542)">
<rect x="0" y="0" width="558" height="789" style="stroke:black;fill:#eeeeee;stroke-width:11px"/>
<g style="font-size:71px;fill:black;text-anchor:middle;stroke:none;font-weight:bold;font-family:Arial">
<text x="279" y="98" >Boat Trip</text>
</g>
<text x="279" y="246" style="stroke:none;fill:black;text-anchor:middle;font-family:Arial;font-size:46px">Where are you going?</text>
<text x="279" y="292" style="stroke:none;fill:black;text-anchor:middle;font-family:Arial;font-size:46px">Who hired/owns the</text>
<text x="279" y="338" style="stroke:none;fill:black;text-anchor:middle;font-family:Arial;font-size:46px">boat? What kind of boat</text>
<text x="279" y="384" style="stroke:none;fill:black;text-anchor:middle;font-family:Arial;font-size:46px">is it.</text>
<rect x="0" y="631" width="558" height="118" style="fill:#88ffff;stroke:none;"/>
<text x="279" y="710" style="text-anchor:middle;fill:black;font-family:Arial;font-weight:bold;font-size:55px">Scenario</text>
</g>
<g transform="translate(1798,2542)">
<rect x="0" y="0" width="558" height="789" style="stroke:black;fill:#eeeeee;stroke-width:11px"/>
<g style="font-size:71px;fill:black;text-anchor:middle;stroke:none;font-weight:bold;font-family:Arial">
<text x="279" y="98" >Prison Cell</text>
</g>
<text x="279" y="246" style="stroke:none;fill:black;text-anchor:middle;font-family:Arial;font-size:46px">What country are you</text>
<text x="279" y="292" style="stroke:none;fill:black;text-anchor:middle;font-family:Arial;font-size:46px">in? Can you see any</text>
<text x="279" y="338" style="stroke:none;fill:black;text-anchor:middle;font-family:Arial;font-size:46px">guards?</text>
<rect x="0" y="631" width="558" height="118" style="fill:#88ffff;stroke:none;"/>
<text x="279" y="710" style="text-anchor:middle;fill:black;font-family:Arial;font-weight:bold;font-size:55px">Scenario</text>
</g>
</svg>
